<svg xmlns="http://www.w3.org/2000/svg" viewBox="0 0 228.44 228.44"><defs><style>.cls-1{fill:#fff;}</style></defs><title>logo_xbox</title><g id="Layer_2" data-name="Layer 2"><g id="xbox"><circle cx="114.22" cy="114.22" r="114.22"/><path class="cls-1" d="M50.48,18.44S67.15,3.77,112.81,41.77c0,0,47.67-38.67,65.34-22.33,0,0,7,5,16.33,12.66,0,0-11.67-6.66-15.67-1.66,0,0-37,20.33-44.66,29,0,0,79,75,64.66,131.33,0,0-6.33-31.33-46.66-69.33l-38.67-41-52,55s-31,37-32.33,55.33c0,0-15.67-48.33,63.33-131,0,0-31.67-35.33-57-29Z"/></g></g></svg>