<svg xmlns="http://www.w3.org/2000/svg" viewBox="0 0 225 225"><defs><style>.cls-1{fill:#fff;}</style></defs><title>logo_playstation</title><g id="Layer_2" data-name="Layer 2"><g id="playstation"><circle cx="112.5" cy="112.5" r="112.5"/><path class="cls-1" d="M82.11,18.56V181.89l38,12.33V53.56s6-14.67,14.33,3.33v58.67s11.34,8.33,28,2.33,13.34-41,13.34-41,.66-31.33-33-41.67C142.78,35.22,92.78,18.56,82.11,18.56Z"/><path class="cls-1" d="M127.11,135.22v21.67s45.55-19.33,48.94-15.67c0,0,26.39-2,12.73,6.34,0,0-49.34,19-61.67,23.33v20.67l87-30.71,7.44-20.6S190.44,112.22,127.11,135.22Z"/><path class="cls-1" d="M75.78,117.22v21.34s-29.34,9.66-32,12c0,0-21.67,6.33-7.34,9.66s39.34-6.66,39.34-6.66v19.33S45.69,178,15.07,168.78A74.68,74.68,0,0,1,4.25,143.24Z"/></g></g></svg>