<svg xmlns="http://www.w3.org/2000/svg" viewBox="0 0 304.97 65.67"><defs><style>.cls-1{fill:#33c289;}.cls-2{fill:#858bdb;}.cls-3{fill:#d98cc3;}.cls-4{fill:#df5e61;}</style></defs><title>playstation buttons</title><g id="Layer_2" data-name="Layer 2"><g id="playstation"><g id="playstation_button_4" data-name="playstation button 4"><circle cx="273.66" cy="33" r="31.31"/><polygon class="cls-1" points="273.66 10.73 252.95 46.57 294.24 46.57 273.66 10.73"/><polygon points="273.6 18.92 287.3 42.36 259.52 42.36 273.6 18.92"/></g><g id="playstation_button_3" data-name="playstation button 3"><ellipse cx="188.44" cy="33" rx="31.53" ry="31.34"/><polygon class="cls-2" points="172.58 13.51 188.44 29.4 204.3 13.51 208.17 17.36 192.06 32.75 208.17 49.13 204.68 52.48 188.44 36.35 172.58 52.48 168.84 48.51 184.69 33 168.84 17.23 172.58 13.51"/></g><g id="playstation_button_2" data-name="playstation button 2"><circle cx="31.33" cy="34.33" r="31.33"/><rect class="cls-3" x="13.34" y="16.46" width="35.99" height="35.74"/><rect x="17.43" y="20.31" width="27.92" height="27.67"/></g><g id="playstation_button" data-name="playstation button"><circle cx="109.76" cy="32.53" r="32.53"/><circle class="cls-4" cx="109.95" cy="32.72" r="24.28"/><circle cx="109.82" cy="32.53" r="19.26"/></g></g></g></svg>