<svg xmlns="http://www.w3.org/2000/svg" viewBox="0 0 309.78 64.22"><defs><style>.cls-1{fill:#417bd8;}.cls-1,.cls-2,.cls-3,.cls-4{stroke:#000;stroke-miterlimit:10;}.cls-2{fill:#30b739;}.cls-3{fill:#f7f114;}.cls-4{fill:#ef2b2b;}</style></defs><title>xbox_buttons</title><g id="Layer_2" data-name="Layer 2"><g id="xbox"><g id="xbox_button_4" data-name="xbox button 4"><circle cx="31.33" cy="31.33" r="31.33"/><path class="cls-1" d="M18,14.88h5.5s3,.34,3.17,2l4.66,8.34,5-7.84s2.34-3,3.5-2.5l4.34-.05s2.66.22,2,2-8.84,14.45-8.84,14.45-1.16.55.17,1.55l9.83,15.17s.84,2.83-1.83,2.67a53.73,53.73,0,0,0-5.67,0s-3.66-2.51-3.66-3.35l-4.84-7.5-5.16,8.34a6.54,6.54,0,0,1-3.5,2.51,20.18,20.18,0,0,1-5.67,0s-3.19,0,0-4.85l8-11.83s1-3-.5-4.67-7.67-11.66-7.67-11.66A2.38,2.38,0,0,1,18,14.88Z"/></g><g id="xbox_button_3" data-name="xbox button 3"><circle cx="278.45" cy="32.89" r="31.33"/><path class="cls-2" d="M274.78,13.05h6s2.67,1,3,3l11.34,28.5s2.16,3.17,0,4.34a19.1,19.1,0,0,1-5.84,0c-3.16-.5-5-7.34-5-7.34l-11.5-.33s-2.66,7.44-4.5,7.89H263s-3.5-1.56-1.5-4.56,11.17-28.83,11.17-28.83A7.75,7.75,0,0,1,274.78,13.05Z"/><polygon points="278.45 25.39 275.12 32.89 280.95 32.89 278.45 25.39"/></g><g id="xbox_button_2" data-name="xbox button 2"><circle cx="109.23" cy="31.33" r="31.33"/><path class="cls-3" d="M93.73,19.67,104.39,36.5V48.67s1.67,4,2.84,3.16l4.33.12a6.19,6.19,0,0,0,2.5-2.45V37.33l10.83-17.66s2-3.84-2.16-3.67h-4.67s-3.17,1.51-3.67,4l-4.84,7.67L102.89,17.5s-1.83-1.51-3-1.51H93.73S91.59,16.3,93.73,19.67Z"/></g><g id="xbox_button" data-name="xbox button"><circle cx="193.84" cy="32.89" r="31.33"/><path class="cls-4" d="M179.34,16.33s.22,26.36,0,32.72a4.61,4.61,0,0,0,4,3.4c3.5.6,21.16,0,21.16,0s7.84-4.73,7.5-8.4,2.67-8-5-12.5c0,0,8.5-8.11,0-15.22a8.7,8.7,0,0,0-5.66-2.61c-3.5-.17-18.67,0-18.67,0S180.5,13.61,179.34,16.33Z"/><path d="M189.17,21.89v5.83h9.5s6.17-1.33,0-5.83Z"/><path d="M189.17,36.89v6.66H199.5s7.34-3,0-6.66Z"/></g></g></g></svg>